<?xml version="1.0" encoding="utf-8"?>
<!-- Generator: Adobe Illustrator 15.0.0, SVG Export Plug-In . SVG Version: 6.00 Build 0)  -->
<!DOCTYPE svg PUBLIC "-//W3C//DTD SVG 1.1//EN" "http://www.w3.org/Graphics/SVG/1.1/DTD/svg11.dtd">
<svg version="1.1" id="Layer_4" xmlns="http://www.w3.org/2000/svg" xmlns:xlink="http://www.w3.org/1999/xlink" x="0px" y="0px"
	 width="134.1px" height="32px" viewBox="0 0 134.1 32" enable-background="new 0 0 134.1 32" xml:space="preserve">
<g id="XMLID_261_">
	<path id="XMLID_259_" d="M5.2,0H0l14.8,25.6l2.6-4.5L5.2,0z"/>
	<path id="XMLID_258_" d="M19.3,14.6L10.9,0H5.8l11.9,20.6L19.4,17.7c0.301-0.5,0.4-1,0.4-1.6C19.8,15.6,19.6,15,19.3,14.6z"/>
	<path id="XMLID_257_" d="M9,16.7L0.2,32h5.1l6.3-10.9L9,16.7z"/>
	<path id="XMLID_256_" d="M11.9,21.6L5.9,32h5.2l3.4-5.9L11.9,21.6z"/>
</g>
<g>
	<path d="M38.3,24.6c-0.5-0.3-0.9-0.5-1.3-0.699c-0.4-0.2-0.9-0.4-1.5-0.601c-0.8-0.3-1.4-0.6-1.8-0.899
		C33.3,22.1,33.1,21.7,33.1,21.2s0.3-1,0.7-1.3c0.5-0.301,1-0.5,1.6-0.5c0.7,0,1.2,0.199,1.601,0.5c0.399,0.3,0.7,0.699,0.8,1.1
		l1.4-0.7C39,19.7,38.6,19.1,37.9,18.6c-0.699-0.5-1.5-0.8-2.6-0.8c-1.2,0-2.1,0.3-2.8,1C31.8,19.4,31.4,20.2,31.4,21.1
		c0,0.801,0.301,1.5,0.9,2.101c0.6,0.6,1.4,1.1,2.5,1.399c1.1,0.4,1.9,0.7,2.4,1.101C37.7,26.1,37.9,26.6,37.9,27.3
		c0,0.601-0.199,1.101-0.699,1.5C36.7,29.2,36.1,29.4,35.4,29.4c-0.6,0-1.3-0.2-1.8-0.7c-0.6-0.4-0.899-1-1.1-1.7L31,27.6
		c0.3,1.101,0.8,1.9,1.7,2.5C33.6,30.7,34.5,31,35.4,31c0.5,0,1-0.1,1.5-0.3c0.4-0.101,0.9-0.3,1.301-0.601
		c0.399-0.199,0.699-0.6,1-1.1c0.3-0.5,0.399-1,0.399-1.6c0-0.601-0.1-1.101-0.3-1.601C39,25.3,38.7,24.9,38.3,24.6z"/>
	<path d="M63.2,14.5c1.899,0,3.399-0.7,4.6-1.9c1.1-1.1,1.6-2.4,1.6-4.2V7.5h-6.1v1.4h4.6c-0.1,1-0.5,1.9-1.1,2.5
		c-0.9,0.9-2.1,1.4-3.5,1.4c-1.3,0-2.4-0.5-3.4-1.4C59,10.5,58.5,9.3,58.5,7.8S58.9,5.1,59.9,4.2C60.8,3.3,62,2.8,63.3,2.8
		c1.4,0,2.6,0.5,3.4,1.5l1.1-1.1c-0.5-0.6-1.2-1.1-2-1.4c-0.8-0.3-1.7-0.5-2.6-0.5C61.4,1.3,59.9,1.9,58.6,3.2
		C57.3,4.5,56.7,6,56.7,7.9s0.6,3.4,1.899,4.7C59.9,13.9,61.4,14.5,63.2,14.5z"/>
	<polygon points="105.8,8.7 110.9,8.7 110.9,7.2 105.8,7.2 105.8,3.1 111.5,3.1 111.5,1.6 104.2,1.6 104.2,14.2 105.8,14.2 	"/>
	<path d="M53.3,21.8c-0.9,0-1.7,0.3-2.3,0.7c-0.601,0.4-1,0.9-1.2,1.4l1.5,0.6c0.2-0.4,0.4-0.7,0.8-0.9c0.4-0.199,0.8-0.3,1.3-0.3
		C54,23.3,54.6,23.5,55,23.9c0.399,0.399,0.6,0.899,0.6,1.5V25.6c-0.6-0.3-1.399-0.5-2.3-0.5c-1.1,0-2,0.301-2.7,0.801
		s-1.1,1.3-1.1,2.199c0,0.9,0.3,1.601,0.899,2.101C51,30.7,51.8,31,52.7,31c1.3,0,2.199-0.5,2.8-1.5h0.1v1.2h1.5v-5.2
		c0-1.2-0.399-2.1-1.1-2.7C55.3,22.1,54.4,21.8,53.3,21.8z M54.8,28.8c-0.5,0.5-1.1,0.7-1.8,0.7c-0.5,0-0.9-0.1-1.3-0.4
		c-0.301-0.199-0.5-0.6-0.5-1c0-0.5,0.199-0.899,0.6-1.199c0.4-0.301,1-0.5,1.8-0.5c0.9,0,1.5,0.199,2,0.6
		C55.6,27.7,55.3,28.3,54.8,28.8z"/>
	<polygon points="99.7,14.2 103.2,5.6 101.5,5.6 98.9,12.2 96.4,5.6 94.6,5.6 98.1,14.2 	"/>
	<path d="M55.7,7.8c0-1.8-0.5-3.3-1.7-4.5C52.9,2.2,51.3,1.6,49.4,1.6h-3.8V14h3.8c1.9,0,3.4-0.5,4.601-1.7
		C55.1,11.2,55.7,9.6,55.7,7.8z M49.4,12.6H47.2V3.1H49.4c1.4,0,2.601,0.5,3.4,1.3c0.9,0.9,1.3,2,1.3,3.5s-0.5,2.7-1.3,3.5
		C52,12.2,50.8,12.6,49.4,12.6z"/>
	<path d="M44.7,21.9c-1.2,0-2.2,0.399-3,1.3c-0.801,0.899-1.2,2-1.2,3.2c0,1.3,0.399,2.399,1.2,3.3C42.6,30.6,43.6,31,44.9,31
		c0.9,0,1.7-0.3,2.301-0.7c0.699-0.5,1.1-1,1.399-1.7L47.2,28c-0.4,1-1.101,1.5-2.301,1.5C44.2,29.5,43.5,29.2,43,28.7
		c-0.601-0.5-0.9-1.101-0.9-2h6.8v-0.3c0-1.4-0.3-2.5-1.1-3.301C47,22.3,46,21.9,44.7,21.9z M42.3,25.4c0.2-0.601,0.5-1.101,0.9-1.5
		C43.6,23.5,44.1,23.3,44.7,23.3c0.8,0,1.399,0.3,1.8,0.7c0.399,0.4,0.7,0.9,0.7,1.4H42.3z"/>
	<path d="M37.8,14.5c1.9,0,3.4-0.7,4.6-1.9C43.5,11.5,44,10.2,44,8.4c0-0.3-0.101-0.6,0-0.9H37.9V9H42.5C42.4,10,42,10.9,41.4,11.5
		c-0.899,0.9-2.1,1.4-3.5,1.4c-1.3,0-2.399-0.5-3.399-1.4c-0.9-0.9-1.4-2.1-1.4-3.6s0.4-2.7,1.4-3.6C35.4,3.4,36.6,2.9,37.9,2.9
		c1.4,0,2.601,0.5,3.4,1.5l1.1-1.1c-0.5-0.6-1.199-1.1-2-1.4c-0.8-0.3-1.699-0.5-2.6-0.5c-1.8,0-3.3,0.6-4.6,1.8
		C31.9,4.5,31.3,6,31.3,7.9s0.6,3.4,1.9,4.7C34.5,13.9,36,14.5,37.8,14.5z"/>
	<path d="M62.8,25.8L61.1,25.4c-0.7-0.2-1.1-0.5-1.1-1c0-0.4,0.2-0.601,0.3-0.7c0.3-0.2,0.7-0.3,1.2-0.3c1,0,1.7,0.3,2,1.1
		l1.399-0.6c-0.3-0.7-0.699-1.2-1.3-1.5c-0.6-0.301-1.2-0.5-2-0.5C60.7,21.9,59.9,22.1,59.2,22.6c-0.7,0.4-1,1-1,1.801
		C58.2,25.1,58.4,25.6,58.9,26S60,26.7,60.5,26.8l1.7,0.4c0.8,0.2,1.199,0.5,1.199,1.1c0,0.4-0.199,0.7-0.5,0.9
		c-0.3,0.2-0.699,0.3-1.199,0.3C60.6,29.5,59.9,29,59.4,27.9L58,28.5c0.3,0.8,0.8,1.3,1.399,1.8c0.7,0.5,1.4,0.7,2.4,0.7
		s1.8-0.3,2.5-0.8c0.6-0.5,0.9-1.101,0.9-1.9c0-0.5-0.2-1-0.601-1.5C64.2,26.3,63.6,26,62.8,25.8z"/>
	<path d="M118.6,13.8c0.7-0.5,1.101-1,1.4-1.7l-1.4-0.6c-0.399,1-1.1,1.5-2.3,1.5c-0.7,0-1.4-0.3-1.9-0.8
		c-0.6-0.5-0.899-1.1-0.899-2h6.8V9.9c0-1.4-0.3-2.5-1.1-3.3C118.4,5.8,117.4,5.4,116.1,5.4c-1.2,0-2.2,0.4-3,1.3
		c-0.8,0.9-1.2,2-1.2,3.2c0,1.3,0.4,2.4,1.2,3.3c0.9,0.9,1.9,1.3,3.2,1.3C117.3,14.5,118,14.2,118.6,13.8z M114.6,7.4
		c0.4-0.4,0.9-0.6,1.5-0.6c0.8,0,1.4,0.3,1.8,0.7c0.4,0.4,0.7,0.9,0.7,1.4H113.7C113.9,8.3,114.2,7.8,114.6,7.4z"/>
	<polygon points="107.6,20.3 108.2,21.7 110.5,20.7 110.5,30.7 112.1,30.7 112.1,18.7 111.1,18.7 	"/>
	<path d="M133.5,12.8c-0.2,0.1-0.4,0.1-0.7,0.1c-0.8,0-1.2-0.5-1.2-1.4V7.1h2.101V5.6H131.6V3H130v2.6h-1.5v1.5h1.5v4.5
		c0,0.8,0.2,1.5,0.7,2s1.199,0.7,2.1,0.7c0.5,0,1-0.1,1.3-0.1L133.5,12.8z"/>
	<path d="M125.4,9.4L123.7,9C123,8.8,122.6,8.5,122.6,8c0-0.3,0.2-0.6,0.5-0.8c0.3-0.2,0.7-0.3,1.2-0.3c1,0,1.7,0.3,2,1.1l1.4-0.6
		C127.4,6.7,127,6.2,126.4,5.9c-0.6-0.3-1.199-0.5-2-0.5C123.5,5.4,122.7,5.6,122,6.1c-0.7,0.4-1,1-1,1.8c0,0.7,0.2,1.2,0.7,1.6
		s1.1,0.7,1.6,0.8l1.7,0.4c0.8,0.2,1.2,0.5,1.2,1.1c0,0.4-0.2,0.7-0.5,0.9c-0.301,0.2-0.7,0.3-1.2,0.3c-1.101,0-1.8-0.5-2.3-1.6
		l-1.4,0.6c0.3,0.8,0.8,1.3,1.4,1.8c0.699,0.5,1.399,0.7,2.399,0.7s1.8-0.3,2.3-0.7c0.601-0.5,0.9-1.1,0.9-1.9c0-0.5-0.2-1-0.6-1.5
		C126.8,9.9,126.2,9.6,125.4,9.4z"/>
	<path d="M102.2,18.4c-1.5,0-2.601,0.6-3.5,1.8c-0.9,1.2-1.301,2.7-1.301,4.5s0.4,3.3,1.301,4.5c0.899,1.2,2.1,1.8,3.5,1.8
		c1.5,0,2.6-0.6,3.5-1.8c0.899-1.2,1.3-2.7,1.3-4.5s-0.4-3.3-1.3-4.5C104.8,19,103.6,18.4,102.2,18.4z M104.5,28.1
		c-0.601,0.9-1.3,1.301-2.3,1.301S100.4,29,99.9,28.1C99.3,27.2,99,26.1,99,24.7c0-1.4,0.3-2.5,0.899-3.4
		C100.5,20.4,101.2,20,102.2,20s1.699,0.4,2.3,1.3c0.6,0.9,0.899,2,0.899,3.4C105.4,26.1,105.1,27.2,104.5,28.1z"/>
	<path d="M79,1.6h-3.8V14H79c1.899,0,3.399-0.5,4.6-1.7c1.101-1.1,1.7-2.7,1.7-4.5c0-1.8-0.5-3.3-1.7-4.5C82.5,2.2,80.9,1.6,79,1.6z
		 M82.4,11.4c-0.8,0.8-2,1.2-3.399,1.2h-2.2V3.1H79c1.399,0,2.6,0.5,3.399,1.3c0.9,0.9,1.301,2,1.301,3.5S83.2,10.6,82.4,11.4z"/>
	<path d="M70.2,21.8c-1.301,0-2.4,0.4-3.2,1.3c-0.8,0.9-1.2,2-1.2,3.301c0,1.3,0.4,2.399,1.2,3.3C67.9,30.6,68.9,31,70.2,31
		c1.3,0,2.399-0.4,3.199-1.3c0.801-0.9,1.2-2,1.2-3.3c0-1.301-0.399-2.4-1.2-3.301C72.5,22.2,71.5,21.8,70.2,21.8z M72.2,28.6
		C71.6,29.1,71,29.4,70.2,29.4c-0.801,0-1.4-0.2-2-0.801C67.7,28.1,67.4,27.3,67.4,26.4c0-0.9,0.2-1.601,0.801-2.2
		c0.6-0.5,1.199-0.8,2-0.8c0.8,0,1.399,0.199,2,0.8c0.5,0.5,0.8,1.3,0.8,2.2C73,27.3,72.8,28,72.2,28.6z"/>
	<path d="M80.1,21.9c-0.6,0-1.1,0.1-1.6,0.399c-0.5,0.2-0.9,0.601-1.101,1h-0.1v-1.2V22h-1.5v8.6h1.6V25.9
		c0-0.7,0.2-1.301,0.601-1.801c0.399-0.5,0.899-0.8,1.6-0.8c1.4,0,2.101,0.8,2.101,2.4v5h1.6v-5.2c0-1.1-0.2-1.9-0.8-2.6
		C82,22.2,81.2,21.9,80.1,21.9z"/>
	<path d="M90.8,29l3.5-3.5c1.3-1.3,1.9-2.5,1.9-3.7c0-0.899-0.4-1.7-1.101-2.399c-0.7-0.7-1.6-1-2.7-1c-1,0-1.8,0.199-2.399,0.8
		c-0.601,0.6-1,1.2-1.2,1.8l1.6,0.6C90.5,21.2,90.7,20.9,91.1,20.5c0.4-0.3,0.9-0.5,1.5-0.5c0.7,0,1.2,0.2,1.601,0.6
		C94.6,21,94.8,21.4,94.8,21.9S94.7,22.8,94.5,23.1c-0.2,0.4-0.601,0.9-1.2,1.5c-0.6,0.7-2.1,2.2-4.4,4.5V30.7h7.4V29H90.8z"/>
	<path d="M93,13.8c0.7-0.5,1.1-1,1.399-1.7L93,11.5c-0.4,1-1.101,1.5-2.3,1.5c-0.7,0-1.4-0.3-1.9-0.8c-0.6-0.5-0.9-1.1-0.9-2H94.7
		V9.9c0-1.4-0.301-2.5-1.101-3.3c-0.8-0.8-1.8-1.2-3.1-1.2c-1.2,0-2.2,0.4-3,1.3c-0.8,0.9-1.2,2-1.2,3.2c0,1.3,0.4,2.4,1.2,3.3
		c0.899,0.9,1.899,1.3,3.2,1.3C91.6,14.5,92.4,14.2,93,13.8z M89,7.4C89.4,7,89.9,6.8,90.5,6.8c0.8,0,1.399,0.3,1.8,0.7
		S93,8.4,93,8.9h-4.9C88.3,8.3,88.6,7.8,89,7.4z"/>
	<path d="M118.25,18.077c-1.133,0-2.12,0.415-2.963,1.246c-0.844,0.808-1.265,1.771-1.265,2.891c0,1.072,0.392,2.012,1.174,2.818
		c0.807,0.783,1.704,1.174,2.692,1.174c0.602,0,1.096-0.126,1.481-0.379l0.036,0.036l-3.054,4.228l1.337,0.921l3.596-5.384
		c0.807-1.276,1.21-2.414,1.21-3.414c0-1.12-0.409-2.089-1.229-2.908S119.443,18.077,118.25,18.077z M120.057,23.984
		c-0.519,0.494-1.12,0.74-1.807,0.74s-1.289-0.246-1.807-0.74c-0.494-0.494-0.741-1.09-0.741-1.788c0-0.699,0.247-1.295,0.741-1.789
		c0.493-0.493,1.096-0.74,1.807-0.74c0.71,0,1.313,0.247,1.807,0.74c0.506,0.494,0.759,1.09,0.759,1.789
		C120.816,22.906,120.563,23.503,120.057,23.984z"/>
</g>
</svg>
