<?xml version="1.0" encoding="utf-8"?>
<!-- Generator: Adobe Illustrator 15.0.0, SVG Export Plug-In . SVG Version: 6.00 Build 0)  -->
<!DOCTYPE svg PUBLIC "-//W3C//DTD SVG 1.1//EN" "http://www.w3.org/Graphics/SVG/1.1/DTD/svg11.dtd">
<svg version="1.1" id="Layer_4" xmlns="http://www.w3.org/2000/svg" xmlns:xlink="http://www.w3.org/1999/xlink" x="0px" y="0px"
	 width="800px" height="146.883px" viewBox="95 377.559 800 146.883" enable-background="new 95 377.559 800 146.883"
	 xml:space="preserve" fill="#0277BD">
<g id="XMLID_6_">
	<path id="XMLID_3_" d="M276.937,476.113c0,11.121-3.286,20.019-9.908,26.642c-7.482,7.885-17.238,11.829-29.27,11.829
		c-11.526,0-21.282-3.994-29.371-11.982c-8.038-7.986-12.082-17.895-12.082-29.673s4.044-21.688,12.082-29.675
		c8.038-7.986,17.845-11.979,29.371-11.979c5.712,0,11.172,1.111,16.378,3.336c5.208,2.225,9.353,5.206,12.487,8.897l-7.027,7.026
		c-5.308-6.37-12.588-9.504-21.889-9.504c-8.392,0-15.671,2.933-21.788,8.846c-6.117,5.915-9.201,13.549-9.201,23.002
		s3.083,17.087,9.201,23.001c6.116,5.916,13.396,8.847,21.788,8.847c8.897,0,16.328-2.982,22.293-8.896
		c3.842-3.842,6.066-9.252,6.673-16.126h-28.966v-9.605h38.622C276.735,472.17,276.937,474.193,276.937,476.113L276.937,476.113z"/>
	<path id="XMLID_20_" d="M287.25,512.764v-79.771h24.367c12.233,0,22.04,3.691,29.42,11.07c7.33,7.382,11.021,16.986,11.021,28.815
		s-3.691,21.384-11.021,28.814c-7.33,7.382-17.137,11.071-29.42,11.071H287.25z M297.512,502.957h14.154
		c9.201,0,16.48-2.629,21.89-7.887c5.358-5.257,8.088-12.639,8.088-22.142c0-9.453-2.679-16.783-8.088-22.092
		c-5.41-5.308-12.688-7.986-21.89-7.986h-14.154V502.957z"/>
	<path id="XMLID_23_" d="M439.26,476.113c0,11.121-3.285,20.019-9.907,26.642c-7.482,7.885-17.239,11.829-29.271,11.829
		c-11.525,0-21.282-3.994-29.37-11.982c-8.038-7.986-12.083-17.895-12.083-29.673s4.044-21.688,12.083-29.675
		c8.037-7.986,17.845-11.979,29.37-11.979c5.713,0,11.172,1.111,16.378,3.336c5.207,2.225,9.353,5.206,12.488,8.897l-7.028,7.026
		c-5.307-6.37-12.587-9.504-21.889-9.504c-8.391,0-15.671,2.933-21.788,8.846c-6.116,5.915-9.201,13.549-9.201,23.002
		s3.084,17.087,9.201,23.001c6.117,5.916,13.397,8.847,21.788,8.847c8.897,0,16.329-2.982,22.294-8.896
		c3.842-3.842,6.066-9.252,6.673-16.126h-28.967v-9.605h38.623C439.058,472.17,439.26,474.193,439.26,476.113z"/>
	<path d="M525.132,489.958c0,6.749-2.478,12.168-7.43,16.26c-5.026,4.021-11.128,6.03-18.306,6.03c-6.39,0-12.024-1.866-16.905-5.6
		c-4.883-3.732-8.256-8.83-10.121-15.291l9.475-3.876c0.646,2.299,1.543,4.38,2.692,6.245c1.147,1.868,2.494,3.465,4.038,4.792
		c1.543,1.329,3.247,2.369,5.114,3.123c1.866,0.753,3.84,1.13,5.923,1.13c4.522,0,8.219-1.166,11.091-3.499
		c2.87-2.332,4.307-5.438,4.307-9.314c0-3.229-1.185-5.992-3.554-8.291c-2.226-2.224-6.39-4.378-12.489-6.461
		c-6.176-2.224-10.015-3.732-11.522-4.522c-8.183-4.162-12.275-10.3-12.275-18.412c0-5.67,2.261-10.516,6.783-14.537
		c4.594-4.02,10.23-6.03,16.906-6.03c5.885,0,10.982,1.508,15.291,4.522c4.307,2.944,7.176,6.641,8.613,11.092l-9.26,3.876
		c-0.862-2.87-2.567-5.257-5.114-7.16c-2.55-1.901-5.654-2.854-9.314-2.854c-3.876,0-7.145,1.077-9.8,3.23
		c-2.655,2.011-3.983,4.63-3.983,7.861c0,2.656,1.04,4.952,3.123,6.892c2.296,1.938,7.284,4.235,14.967,6.892
		c7.823,2.655,13.405,5.905,16.744,9.743C523.463,479.641,525.132,484.359,525.132,489.958z"/>
	<path d="M545.267,510.524h-9.906v-52.762h9.476v8.614h0.431c1.004-2.8,3.069-5.186,6.19-7.16c3.124-1.974,6.192-2.962,9.208-2.962
		c2.87,0,5.311,0.431,7.321,1.293l-3.015,9.583c-1.221-0.501-3.16-0.754-5.814-0.754c-3.733,0-6.981,1.507-9.745,4.522
		s-4.146,6.534-4.146,10.553V510.524z"/>
	<path d="M587.26,439.565c0,1.938-0.683,3.59-2.046,4.952c-1.364,1.365-3.015,2.047-4.952,2.047c-1.939,0-3.59-0.682-4.953-2.047
		c-1.365-1.362-2.047-3.014-2.047-4.952c0-1.939,0.682-3.589,2.047-4.953c1.363-1.363,3.014-2.045,4.953-2.045
		c1.938,0,3.588,0.682,4.952,2.045C586.577,435.977,587.26,437.626,587.26,439.565z M585.214,457.763v52.762h-9.905v-52.762H585.214
		z"/>
	<path d="M666.831,510.524h-43.286v-77.097h9.905v67.622h33.381V510.524z"/>
	<path d="M695.471,456.04c7.322,0,13.1,1.956,17.337,5.868c4.233,3.914,6.353,9.279,6.353,16.098v32.519h-9.476v-7.321h-0.431
		c-4.092,6.029-9.549,9.045-16.367,9.045c-5.814,0-10.679-1.724-14.591-5.17c-3.913-3.445-5.868-7.752-5.868-12.92
		c0-5.454,2.063-9.799,6.192-13.029c4.127-3.23,9.637-4.846,16.528-4.846c5.885,0,10.729,1.076,14.536,3.23v-2.261
		c0-3.446-1.364-6.37-4.092-8.776c-2.729-2.404-5.922-3.606-9.584-3.606c-5.528,0-9.905,2.333-13.137,6.998l-8.721-5.491
		C678.959,459.484,686.066,456.04,695.471,456.04z M682.657,494.373c0,2.584,1.094,4.737,3.284,6.461
		c2.188,1.722,4.754,2.585,7.699,2.585c4.162,0,7.877-1.543,11.145-4.631c3.266-3.086,4.899-6.712,4.899-10.876
		c-3.088-2.44-7.395-3.661-12.922-3.661c-4.02,0-7.375,0.969-10.067,2.908C684.003,489.097,682.657,491.503,682.657,494.373z"/>
	<path d="M730.357,457.763h9.476v7.322h0.431c1.509-2.584,3.823-4.737,6.945-6.461c3.122-1.723,6.37-2.584,9.746-2.584
		c6.46,0,11.43,1.849,14.913,5.546c3.479,3.698,5.222,8.956,5.222,15.773v33.165h-9.906v-32.519
		c-0.215-8.613-4.56-12.921-13.028-12.921c-3.949,0-7.252,1.599-9.907,4.792c-2.656,3.193-3.984,7.017-3.984,11.468v29.18h-9.906
		V457.763z"/>
	<path d="M835.127,510.524h-11.951l-16.475-24.873l-8.076,7.968v16.905h-9.907v-77.097h9.907v47.485l22.828-23.15h12.705v0.432
		l-20.565,20.458l21.534,31.442V510.524z"/>
	<path d="M859.676,456.04c7.322,0,13.101,1.956,17.336,5.868c4.235,3.914,6.354,9.279,6.354,16.098v32.519h-9.476v-7.321h-0.431
		c-4.092,6.029-9.549,9.045-16.367,9.045c-5.815,0-10.678-1.724-14.59-5.17c-3.913-3.445-5.868-7.752-5.868-12.92
		c0-5.454,2.062-9.799,6.191-13.029c4.126-3.23,9.636-4.846,16.527-4.846c5.886,0,10.731,1.076,14.537,3.23v-2.261
		c0-3.446-1.365-6.37-4.093-8.776c-2.729-2.404-5.922-3.606-9.582-3.606c-5.528,0-9.907,2.333-13.137,6.998l-8.721-5.491
		C843.164,459.484,850.271,456.04,859.676,456.04z M846.862,494.373c0,2.584,1.094,4.737,3.283,6.461
		c2.19,1.722,4.756,2.585,7.701,2.585c4.162,0,7.877-1.543,11.144-4.631c3.267-3.086,4.899-6.712,4.899-10.876
		c-3.087-2.44-7.394-3.661-12.922-3.661c-4.021,0-7.376,0.969-10.067,2.908C848.209,489.097,846.862,491.503,846.862,494.373z"/>
</g>
<g id="XMLID_261_">
	<path id="XMLID_259_" d="M111.328,423.338H95l46.659,80.883l8.19-14.155L111.328,423.338z"/>
	<path id="XMLID_258_" d="M156.118,469.34l-26.591-46.002H113.25l37.56,65.111l5.308-9.201c0.859-1.415,1.415-3.135,1.415-4.953
		C157.483,472.474,156.977,470.805,156.118,469.34L156.118,469.34z"/>
	<path id="XMLID_257_" d="M123.461,475.961l-28.006,48.48h16.329l19.866-34.376L123.461,475.961z"/>
	<path id="XMLID_256_" d="M132.561,491.734l-18.856,32.707h16.277l10.768-18.603L132.561,491.734L132.561,491.734z"/>
</g>
</svg>
